<svg xmlns="http://www.w3.org/2000/svg" viewBox="0 0 1024 1024">
  <defs>
    <linearGradient id="bg" x1="160" y1="80" x2="864" y2="944" gradientUnits="userSpaceOnUse">
      <stop offset="0" stop-color="#17312f"/>
      <stop offset="0.48" stop-color="#182938"/>
      <stop offset="1" stop-color="#111820"/>
    </linearGradient>
    <radialGradient id="glow" cx="322" cy="222" r="620" gradientUnits="userSpaceOnUse">
      <stop offset="0" stop-color="#5ff0d8" stop-opacity="0.38"/>
      <stop offset="0.52" stop-color="#47c7ff" stop-opacity="0.14"/>
      <stop offset="1" stop-color="#47c7ff" stop-opacity="0"/>
    </radialGradient>
    <linearGradient id="mic" x1="352" y1="190" x2="592" y2="612" gradientUnits="userSpaceOnUse">
      <stop offset="0" stop-color="#f7fffb"/>
      <stop offset="0.48" stop-color="#c7fff2"/>
      <stop offset="1" stop-color="#56d6c9"/>
    </linearGradient>
    <linearGradient id="accent" x1="282" y1="322" x2="762" y2="740" gradientUnits="userSpaceOnUse">
      <stop offset="0" stop-color="#6dffe3"/>
      <stop offset="1" stop-color="#5aa7ff"/>
    </linearGradient>
    <filter id="soft-shadow" x="-20%" y="-20%" width="140%" height="150%">
      <feDropShadow dx="0" dy="22" stdDeviation="28" flood-color="#05070a" flood-opacity="0.42"/>
    </filter>
    <clipPath id="shape">
      <rect x="64" y="64" width="896" height="896" rx="218"/>
    </clipPath>
  </defs>
  <g clip-path="url(#shape)">
    <rect x="64" y="64" width="896" height="896" rx="218" fill="url(#bg)"/>
    <rect x="64" y="64" width="896" height="896" rx="218" fill="url(#glow)"/>
    <path d="M164 770 C276 842 426 878 595 856 C755 836 864 748 936 616 L936 960 L164 960 Z" fill="#071015" opacity="0.34"/>
    <path d="M228 246 C312 154 450 126 548 178" fill="none" stroke="#ffffff" stroke-opacity="0.12" stroke-width="30" stroke-linecap="round"/>
  </g>
  <rect x="72" y="72" width="880" height="880" rx="210" fill="none" stroke="#ffffff" stroke-opacity="0.14" stroke-width="16"/>
  <g filter="url(#soft-shadow)">
    <path d="M360 354 C360 290 412 238 476 238 C540 238 592 290 592 354 L592 498 C592 562 540 614 476 614 C412 614 360 562 360 498 Z" fill="url(#mic)"/>
    <path d="M419 342 C419 310 444 284 476 284 C508 284 533 310 533 342 L533 500 C533 532 508 558 476 558 C444 558 419 532 419 500 Z" fill="#12262c" opacity="0.46"/>
    <path d="M476 284 L476 558" fill="none" stroke="#ffffff" stroke-opacity="0.24" stroke-width="18" stroke-linecap="round"/>
    <path d="M288 440 C288 548 370 648 476 648 C582 648 664 548 664 440" fill="none" stroke="url(#accent)" stroke-width="58" stroke-linecap="round"/>
    <path d="M476 648 L476 742" fill="none" stroke="url(#accent)" stroke-width="58" stroke-linecap="round"/>
    <path d="M384 768 L568 768" fill="none" stroke="url(#accent)" stroke-width="58" stroke-linecap="round"/>
    <path d="M724 282 L724 724" fill="none" stroke="#f6fffb" stroke-width="58" stroke-linecap="round"/>
    <path d="M724 282 L786 282" fill="none" stroke="#f6fffb" stroke-width="58" stroke-linecap="round"/>
    <path d="M724 724 L786 724" fill="none" stroke="#f6fffb" stroke-width="58" stroke-linecap="round"/>
    <path d="M250 384 C216 420 198 464 198 512 C198 560 216 604 250 640" fill="none" stroke="#6dffe3" stroke-opacity="0.6" stroke-width="34" stroke-linecap="round"/>
    <path d="M796 384 C830 420 848 464 848 512 C848 560 830 604 796 640" fill="none" stroke="#5aa7ff" stroke-opacity="0.56" stroke-width="34" stroke-linecap="round"/>
  </g>
</svg>
